<svg width="45" height="53" viewBox="0 0 45 53" fill="none" xmlns="http://www.w3.org/2000/svg">
<path id="Vector" d="M37.1114 35.433V52.2464H15.9753V46.1822H12.8702C8.55831 46.1822 5.06036 42.6859 5.06036 38.3681V32.8319H2.40457C1.98062 32.8315 1.57408 32.6632 1.27383 32.3639C0.97359 32.0646 0.80406 31.6586 0.802307 31.2346C0.802307 31.0125 0.842094 30.802 0.921669 30.6138L5.06036 20.1921C5.06036 20.1921 5.48807 15.8752 5.87765 14.2223C7.60093 6.78629 15.8899 0.0390625 24.8785 0.0390625C35.8133 0.0390625 44.6817 8.90827 44.6817 19.853C44.6817 26.1734 41.7209 31.8066 37.1114 35.433ZM9.92599 19.7196C9.34164 19.7211 8.78172 19.9542 8.3689 20.3678C7.95609 20.7814 7.72404 21.3418 7.72361 21.9261C7.72229 22.5119 7.95348 23.0742 8.36641 23.4896C8.77934 23.905 9.34026 24.1396 9.92599 24.1418C10.2172 24.142 10.5055 24.0848 10.7746 23.9736C11.0437 23.8624 11.2883 23.6992 11.4943 23.4935C11.7004 23.2878 11.8639 23.0435 11.9755 22.7745C12.0872 22.5056 12.1447 22.2173 12.145 21.9261C12.1425 21.3395 11.9076 20.7778 11.4916 20.3641C11.0756 19.9505 10.5126 19.7187 9.92599 19.7196ZM29.1142 14.912C29.1142 15.4651 29.3339 15.9956 29.725 16.3867C30.1161 16.7778 30.6466 16.9975 31.1997 16.9975C31.7528 16.9975 32.2832 16.7778 32.6743 16.3867C33.0655 15.9956 33.2852 15.4651 33.2852 14.912C33.2852 14.3589 33.0655 13.8284 32.6743 13.4373C32.2832 13.0462 31.7528 12.8265 31.1997 12.8265C30.6466 12.8265 30.1161 13.0462 29.725 13.4373C29.3339 13.8284 29.1142 14.3589 29.1142 14.912ZM13.351 12.6474C13.3511 12.9221 13.4053 13.1941 13.5106 13.4477C13.6159 13.7014 13.7701 13.9319 13.9645 14.126C14.1588 14.32 14.3895 14.4739 14.6434 14.5788C14.8973 14.6836 15.1693 14.7374 15.444 14.7371C15.9988 14.7371 16.531 14.5167 16.9233 14.1243C17.3157 13.732 17.5361 13.1998 17.5361 12.6449C17.5361 12.0901 17.3157 11.5579 16.9233 11.1656C16.531 10.7732 15.9988 10.5528 15.444 10.5528C15.169 10.5528 14.8967 10.607 14.6426 10.7123C14.3886 10.8176 14.1578 10.9719 13.9634 11.1664C13.7691 11.3609 13.6149 11.5919 13.5098 11.846C13.4048 12.1001 13.3508 12.3724 13.351 12.6474ZM38.1069 17.2337L41.1382 16.7124V13.7946L38.2179 13.2915C38.0792 12.7646 37.8818 12.255 37.6294 11.7721L39.3991 9.2589L37.3459 7.19826L34.9198 8.90745C34.554 8.6904 34.1698 8.50595 33.7717 8.35623C33.6582 8.31478 33.5446 8.28411 33.4311 8.2493L32.9022 5.21968H29.9853L29.493 8.1374C28.9628 8.27505 28.4503 8.47307 27.9653 8.72758L25.4554 6.95373L23.3856 9.01852L25.1048 11.4348C24.8856 11.8032 24.7002 12.1908 24.5511 12.5927C24.5071 12.7063 24.479 12.8198 24.4425 12.9334L21.9384 13.3628V11.9719L20.0261 11.6436C19.938 11.3119 19.8123 10.9912 19.6515 10.6879L20.8235 9.03178L19.4691 7.67985L17.8743 8.80466C17.6401 8.66419 17.3944 8.54385 17.1399 8.44492C17.0728 8.42005 17.0031 8.41425 16.9343 8.3927L16.5878 6.39754H14.6839L14.3507 8.3123C14.0149 8.40099 13.6958 8.53195 13.3891 8.69193L11.7297 7.52401L10.3819 8.87595L11.5092 10.4707C11.3682 10.7037 11.2487 10.949 11.1519 11.2035C11.1262 11.2723 11.1105 11.3403 11.0889 11.4115L9.10455 11.7522V13.6662L11.0301 13.9961C11.1179 14.3251 11.239 14.6443 11.3948 14.9476L10.2236 16.6054L11.573 17.959L13.1736 16.8317C13.4065 16.9685 13.6477 17.0953 13.9097 17.1931C13.9768 17.2188 14.0464 17.2238 14.1136 17.247L14.4601 19.2421L16.3632 19.2405L16.6973 17.3282C17.0295 17.238 17.3509 17.1116 17.6555 16.9511L19.3083 18.1165L20.6627 16.7654L19.5371 15.1706C19.6722 14.9393 19.7973 14.7014 19.8927 14.442C19.92 14.3732 19.925 14.3011 19.949 14.2306L21.4178 13.977V16.3717L24.3331 16.8732C24.4707 17.4053 24.6713 17.9159 24.9249 18.4008L23.1552 20.9049L25.2125 22.968L27.6371 21.2589C27.9993 21.4702 28.3781 21.6576 28.7859 21.8076C28.8995 21.8507 29.013 21.8797 29.1266 21.9162L29.6554 24.9475H32.1869L31.978 26.1618C31.6125 26.2447 31.2676 26.3889 30.9427 26.5713L29.7325 25.7158L28.7834 26.6658L29.6024 27.8254C29.4615 28.0492 29.3388 28.2871 29.2451 28.544C29.2078 28.6468 29.1929 28.7496 29.1639 28.8524L27.6951 29.1036V30.4422L29.1009 30.6859C29.1821 31.0539 29.3264 31.3979 29.5104 31.7254L28.6549 32.9339L29.6007 33.8863L30.7603 33.064C30.9842 33.2066 31.2237 33.3293 31.4815 33.4246C31.5843 33.4627 31.6887 33.4768 31.794 33.5058L32.0352 34.9672H33.3788L33.6242 33.5672C33.9922 33.4859 34.337 33.3417 34.6636 33.1577L35.8672 34.0123L36.8196 33.0615L36.0006 31.9085C36.1449 31.6831 36.2692 31.4427 36.3654 31.1833C36.401 31.0821 36.4159 30.9793 36.4449 30.8766L37.9013 30.6254V29.2818L36.503 29.0422C36.4189 28.6781 36.2809 28.3286 36.0935 28.0053L36.9464 26.7942L35.9957 25.8452L34.8377 26.6591C34.6115 26.5142 34.3706 26.3936 34.119 26.2994C34.0204 26.2637 33.9193 26.2488 33.8182 26.2223L33.562 24.761H32.6022L33.0655 22.0272C33.5941 21.8908 34.105 21.6936 34.5882 21.4396L37.1014 23.2134L39.1612 21.1528L37.4487 18.7282C37.6618 18.3652 37.8507 17.9847 38.0024 17.5769C38.0447 17.4625 38.0737 17.3489 38.1102 17.2354L38.1069 17.2337ZM30.709 29.9523C30.7096 30.5074 30.9306 31.0394 31.3234 31.4316C31.7162 31.8237 32.2486 32.0439 32.8036 32.0437C33.0776 32.0431 33.3489 31.9886 33.6019 31.8832C33.8548 31.7778 34.0846 31.6236 34.2779 31.4294C34.4713 31.2352 34.6245 31.0048 34.7288 30.7513C34.8331 30.4979 34.8864 30.2264 34.8858 29.9523C34.8863 29.6784 34.8329 29.407 34.7285 29.1537C34.6242 28.9005 34.4709 28.6702 34.2776 28.4762C34.0842 28.2821 33.8545 28.128 33.6016 28.0228C33.3487 27.9175 33.0775 27.8631 32.8036 27.8627C32.2488 27.8623 31.7165 28.0821 31.3237 28.4739C30.931 28.8658 30.7098 29.3975 30.709 29.9523Z" fill="#266EE3"/>
</svg>
