<svg width="56" height="56" viewBox="0 0 56 56" fill="none" xmlns="http://www.w3.org/2000/svg">
<g id="Group">
<path id="Vector" d="M27.8208 1.96997H20.7436M24.2822 1.96997V8.0348M10.7016 6.12905L8.20105 8.63196M8.20105 8.63196L5.69814 11.1325M8.20105 8.63196L12.4884 12.9193M1.53906 21.1745V28.2517M1.53906 24.7131H7.6039M5.69814 38.2937L8.20105 40.7942M8.20105 40.7942L10.7016 43.2971M8.20105 40.7942L12.4884 36.5069M42.8662 11.1325L40.3633 8.63196M40.3633 8.63196L37.8627 6.12905M40.3633 8.63196L36.076 12.9193M20.7436 23.1969C21.6821 23.1969 22.5821 22.8241 23.2458 22.1605C23.9094 21.4968 24.2822 20.5968 24.2822 19.6583C24.2822 18.7198 23.9094 17.8197 23.2458 17.1561C22.5821 16.4925 21.6821 16.1197 20.7436 16.1197C19.8051 16.1197 18.905 16.4925 18.2414 17.1561C17.5778 17.8197 17.205 18.7198 17.205 19.6583C17.205 20.5968 17.5778 21.4968 18.2414 22.1605C18.905 22.8241 19.8051 23.1969 20.7436 23.1969Z" stroke="#266EE3" stroke-width="2" stroke-linecap="round" stroke-linejoin="round"/>
<g id="Vector_2">
<path d="M40.8671 22.9636C40.5401 19.8428 39.3392 16.8775 37.4026 14.4085C35.4659 11.9395 32.872 10.0669 29.9189 9.00595C26.9657 7.94497 23.7732 7.73862 20.7081 8.4106C17.6429 9.08258 14.8295 10.6056 12.5912 12.8048C10.3528 15.0039 8.78016 17.7899 8.05405 20.8427C7.32795 23.8954 7.47778 27.0911 8.48635 30.0626C9.49491 33.034 11.3213 35.6606 13.7556 37.6407C16.19 39.6207 19.1335 40.8738 22.2481 41.2561M54.0232 40.4583C54.0232 39.8397 53.7774 39.2463 53.34 38.8089C52.9025 38.3714 52.3092 38.1257 51.6905 38.1257H45.859V32.2941C45.859 31.6755 45.6132 31.0821 45.1758 30.6447C44.7383 30.2072 44.145 29.9615 43.5263 29.9615H40.0274C39.4087 29.9615 38.8154 30.2072 38.378 30.6447C37.9405 31.0821 37.6948 31.6755 37.6948 32.2941V38.1257H31.8632C31.2445 38.1257 30.6512 38.3714 30.2138 38.8089C29.7763 39.2463 29.5306 39.8397 29.5306 40.4583V43.9573C29.5306 44.5759 29.7763 45.1692 30.2138 45.6067C30.6512 46.0441 31.2445 46.2899 31.8632 46.2899H37.6948V52.1215C37.6948 52.7401 37.9405 53.3334 38.378 53.7709C38.8154 54.2083 39.4087 54.4541 40.0274 54.4541H43.5263C44.145 54.4541 44.7383 54.2083 45.1758 53.7709C45.6132 53.3334 45.859 52.7401 45.859 52.1215V46.2899H51.6905C52.3092 46.2899 52.9025 46.0441 53.34 45.6067C53.7774 45.1692 54.0232 44.5759 54.0232 43.9573V40.4583Z" fill="#266EE3"/>
<path d="M40.8671 22.9636C40.5401 19.8428 39.3392 16.8775 37.4026 14.4085C35.4659 11.9395 32.872 10.0669 29.9189 9.00595C26.9657 7.94497 23.7732 7.73862 20.7081 8.4106C17.6429 9.08258 14.8295 10.6056 12.5912 12.8048C10.3528 15.0039 8.78016 17.7899 8.05405 20.8427C7.32795 23.8954 7.47778 27.0911 8.48635 30.0626C9.49491 33.034 11.3213 35.6606 13.7556 37.6407C16.19 39.6207 19.1335 40.8738 22.2481 41.2561M54.0232 40.4583C54.0232 39.8397 53.7774 39.2463 53.34 38.8089C52.9025 38.3714 52.3092 38.1257 51.6905 38.1257H45.859V32.2941C45.859 31.6755 45.6132 31.0821 45.1758 30.6447C44.7383 30.2072 44.145 29.9615 43.5263 29.9615H40.0274C39.4087 29.9615 38.8154 30.2072 38.378 30.6447C37.9405 31.0821 37.6948 31.6755 37.6948 32.2941V38.1257H31.8632C31.2445 38.1257 30.6512 38.3714 30.2138 38.8089C29.7763 39.2463 29.5306 39.8397 29.5306 40.4583V43.9573C29.5306 44.5759 29.7763 45.1692 30.2138 45.6067C30.6512 46.0441 31.2445 46.2899 31.8632 46.2899H37.6948V52.1215C37.6948 52.7401 37.9405 53.3334 38.378 53.7709C38.8154 54.2083 39.4087 54.4541 40.0274 54.4541H43.5263C44.145 54.4541 44.7383 54.2083 45.1758 53.7709C45.6132 53.3334 45.859 52.7401 45.859 52.1215V46.2899H51.6905C52.3092 46.2899 52.9025 46.0441 53.34 45.6067C53.7774 45.1692 54.0232 44.5759 54.0232 43.9573V40.4583Z" stroke="#266EE3" stroke-width="2" stroke-linecap="round" stroke-linejoin="round"/>
</g>
<path id="Vector_3" d="M23.6011 33.8896C23.3691 33.8896 23.1466 33.7974 22.9825 33.6334C22.8185 33.4694 22.7263 33.2469 22.7263 33.0149C22.7263 32.7829 22.8185 32.5604 22.9825 32.3963C23.1466 32.2323 23.3691 32.1401 23.6011 32.1401M23.6011 33.8896C23.8331 33.8896 24.0556 33.7974 24.2196 33.6334C24.3836 33.4694 24.4758 33.2469 24.4758 33.0149C24.4758 32.7829 24.3836 32.5604 24.2196 32.3963C24.0556 32.2323 23.8331 32.1401 23.6011 32.1401" fill="white"/>
</g>
</svg>
