<svg width="46" height="48" viewBox="0 0 46 48" fill="none" xmlns="http://www.w3.org/2000/svg">
<path id="Vector" d="M30.5599 5.01723C29.501 4.43145 28.0816 4.88205 27.4958 5.98601C27.3381 6.30143 27.248 6.66191 27.248 7.02238V12.8576L25.6484 11.258C25.4406 11.0513 25.2759 10.8056 25.1638 10.5349C25.0517 10.2642 24.9943 9.97392 24.995 9.68091V0.263428H20.489V9.65838C20.489 10.2667 20.2637 10.8299 19.8357 11.258L18.236 12.8576V7.02238C18.236 5.76071 17.1997 4.7694 15.9831 4.7694C15.6001 4.7694 15.2396 4.85952 14.9242 5.01723C6.34028 9.27537 0.212158 20.4727 0.212158 33.54C0.212158 37.8207 0.955644 42.0563 2.46514 46.0441C2.57372 46.3567 2.74936 46.6417 2.97974 46.8792C3.21012 47.1167 3.48966 47.301 3.79878 47.4191C4.10789 47.5371 4.43909 47.5861 4.76915 47.5627C5.09921 47.5392 5.42014 47.4438 5.70944 47.2832L17.1096 40.9749C17.808 40.5919 18.236 39.8259 18.236 38.9923V19.211L21.1649 16.3047C21.3734 16.0958 21.6209 15.9301 21.8935 15.8171C22.166 15.704 22.4582 15.6458 22.7533 15.6458C23.0484 15.6458 23.3405 15.704 23.6131 15.8171C23.8856 15.9301 24.1332 16.0958 24.3416 16.3047L27.248 19.2336V39.0148C27.248 39.8259 27.7211 40.5919 28.3745 40.9974L39.8197 47.3058C40.0825 47.4468 40.3708 47.5342 40.6678 47.5629C40.9647 47.5916 41.2644 47.5611 41.5495 47.4731C41.8345 47.385 42.0992 47.2413 42.3283 47.0501C42.5573 46.859 42.7461 46.6242 42.8837 46.3595C42.9288 46.2694 43.0189 46.1567 43.0189 46.0441C44.5284 42.0563 45.2719 37.8207 45.2719 33.54C45.2719 20.4727 39.1663 9.27537 30.5599 5.01723Z" fill="#266EE3"/>
</svg>
