<svg width="41" height="41" viewBox="0 0 41 41" fill="none" xmlns="http://www.w3.org/2000/svg">
<path id="Vector" d="M16.9805 29.7839L28.9903 20.7766L16.9805 11.7693M41 20.7766C41 9.68758 32.0728 0.760345 20.9838 0.760345C18.6419 0.760345 16.38 1.14065 14.2183 1.88125L15.6194 5.7644C17.3208 5.08385 19.1023 4.70354 20.9838 4.70354C29.8109 4.70354 37.0568 11.9494 37.0568 20.7766C37.0568 29.6037 29.8109 36.8496 20.9838 36.8496C12.1566 36.8496 4.91076 29.6037 4.91076 20.7766C4.91076 18.895 5.29106 17.0135 5.97161 15.3322L2.08847 14.0111C1.34787 16.1728 0.96756 18.4347 0.96756 20.7766C0.96756 31.8656 9.89479 40.7928 20.9838 40.7928C32.0728 40.7928 41 31.8656 41 20.7766ZM7.91319 4.70354C9.61457 4.70354 10.9757 6.12469 10.9757 7.70597C10.9757 9.40735 9.61457 10.7685 7.91319 10.7685C6.33191 10.7685 4.91076 9.40735 4.91076 7.70597C4.91076 6.12469 6.33191 4.70354 7.91319 4.70354Z" fill="#266EE3"/>
</svg>
